<svg width="132" height="132" viewBox="0 0 132 132" fill="none" xmlns="http://www.w3.org/2000/svg">
<path d="M45.853 19.9375L103.238 32.6595L108.872 91.1674L54.9685 114.605L16.0206 70.5827L45.853 19.9375Z" fill="url(#paint0_radial_19_27)"/>
<mask id="path-2-outside-1_19_27" maskUnits="userSpaceOnUse" x="52.7905" y="32.7905" width="27" height="67" fill="black">
<rect fill="white" x="52.7905" y="32.7905" width="27" height="67"/>
<path fill-rule="evenodd" clip-rule="evenodd" d="M68.4763 60.9414L71.5097 34.7905L53.7905 71.6395H63.8698L60.8364 97.7905L78.5557 60.9414L68.4763 60.9414Z"/>
</mask>
<path fill-rule="evenodd" clip-rule="evenodd" d="M68.4763 60.9414L71.5097 34.7905L53.7905 71.6395H63.8698L60.8364 97.7905L78.5557 60.9414L68.4763 60.9414Z" fill="white"/>
<path d="M71.5097 34.7905L72.5031 34.9057C72.5593 34.4206 72.257 33.9658 71.7879 33.8299C71.3188 33.6941 70.8202 33.917 70.6085 34.3571L71.5097 34.7905ZM68.4763 60.9414L67.483 60.8262C67.4501 61.1096 67.5399 61.3935 67.7296 61.6065C67.9194 61.8196 68.1911 61.9414 68.4763 61.9414V60.9414ZM53.7905 71.6395L52.8892 71.2062C52.7402 71.516 52.7609 71.8807 52.9439 72.1718C53.1269 72.4629 53.4466 72.6395 53.7905 72.6395V71.6395ZM63.8698 71.6395L64.8631 71.7547C64.896 71.4714 64.8062 71.1874 64.6165 70.9744C64.4267 70.7614 64.155 70.6395 63.8698 70.6395V71.6395ZM60.8364 97.7905L59.843 97.6752C59.7868 98.1604 60.0891 98.6152 60.5582 98.751C61.0273 98.8868 61.5259 98.664 61.7376 98.2238L60.8364 97.7905ZM78.5557 60.9414L79.4569 61.3748C79.6059 61.0649 79.5852 60.7002 79.4022 60.4091C79.2192 60.1181 78.8995 59.9414 78.5557 59.9414V60.9414ZM70.5164 34.6752L67.483 60.8262L69.4697 61.0566L72.5031 34.9057L70.5164 34.6752ZM54.6917 72.0729L72.411 35.2238L70.6085 34.3571L52.8892 71.2062L54.6917 72.0729ZM63.8698 70.6395H53.7905V72.6395H63.8698V70.6395ZM61.8297 97.9057L64.8631 71.7547L62.8764 71.5243L59.843 97.6752L61.8297 97.9057ZM77.6544 60.508L59.9352 97.3571L61.7376 98.2238L79.4569 61.3748L77.6544 60.508ZM68.4763 61.9414L78.5557 61.9414V59.9414L68.4763 59.9414V61.9414Z" fill="white" mask="url(#path-2-outside-1_19_27)"/>
<defs>
<radialGradient id="paint0_radial_19_27" cx="0" cy="0" r="1" gradientUnits="userSpaceOnUse" gradientTransform="translate(88.2905 113.29) rotate(-115.201) scale(122.124)">
<stop stop-color="#15B0A7"/>
<stop offset="0.558246" stop-color="#158BB0" stop-opacity="0.441754"/>
<stop offset="1" stop-color="#1541B0"/>
</radialGradient>
</defs>
</svg>
